<svg width="35" height="33" viewBox="0 0 35 33" fill="none" xmlns="http://www.w3.org/2000/svg">
<path d="M2.54 14.4691C2.83231 10.8015 4.49565 7.37858 7.19864 4.8824C9.90163 2.38623 13.4458 1.00006 17.1251 1C20.7983 1.00052 24.337 2.38207 27.0388 4.87048C29.7407 7.3589 31.4081 10.7723 31.7102 14.433M30.7337 20.8912C29.361 24.3698 27.8405 26.316 23.5011 29.0547M30.7337 20.8912C30.3302 20.7682 29.9917 20.4904 29.7923 20.1187C29.5929 19.747 29.5487 19.3114 29.6694 18.9072C29.9425 18.0042 30.08 17.0657 30.0776 16.1224C30.0776 15.9137 30.1188 15.707 30.1988 15.5142C30.2789 15.3215 30.3962 15.1464 30.544 14.999C30.6918 14.8517 30.8673 14.735 31.0603 14.6556C31.2534 14.5762 31.4602 14.5356 31.6689 14.5363C31.8774 14.5356 32.0839 14.5762 32.2767 14.6556C32.4694 14.7351 32.6445 14.8519 32.7919 14.9993C32.9394 15.1468 33.0562 15.3219 33.1357 15.5146C33.2151 15.7074 33.2557 15.9139 33.255 16.1224C33.265 17.3758 33.0909 18.624 32.7383 19.8268C32.6405 20.1537 32.4399 20.4404 32.1663 20.6442C31.8927 20.848 31.5606 20.9582 31.2194 20.9583C31.0552 20.9582 30.8918 20.9356 30.7337 20.8912ZM17.3266 18.282V17.2487C17.327 16.8003 17.4475 16.3601 17.6755 15.9739C17.9036 15.5878 18.2124 15.2835 18.6234 15.0529C19.0345 14.8223 19.3766 14.4863 19.6145 14.0794C19.8525 13.6726 19.9776 13.2097 19.977 12.7383C19.9663 12.0392 19.6835 11.3718 19.1886 10.8778C18.6937 10.3839 18.0258 10.1024 17.3266 10.0931C16.625 10.0931 15.9522 10.3718 15.4561 10.8679C14.9601 11.364 14.6813 12.0368 14.6813 12.7383V13.3222M3.03599 20.9583C2.69478 20.9582 2.36272 20.848 2.08909 20.6442C1.81545 20.4404 1.61486 20.1537 1.51706 19.8268C1.1645 18.624 0.990426 17.3758 1.00041 16.1224C1.0004 15.9137 1.04159 15.707 1.12162 15.5142C1.20166 15.3215 1.31896 15.1464 1.46679 14.999C1.61463 14.8517 1.7901 14.735 1.98313 14.6556C2.17617 14.5762 2.38295 14.5356 2.59168 14.5363C2.80016 14.5356 3.00672 14.5762 3.19946 14.6556C3.39221 14.7351 3.56737 14.8519 3.71479 14.9993C3.86221 15.1468 3.97898 15.3219 4.05845 15.5146C4.13792 15.7074 4.17852 15.9139 4.17784 16.1224C4.17797 17.0655 4.31542 18.0037 4.58595 18.9072C4.64643 19.1073 4.66688 19.3174 4.64612 19.5255C4.62535 19.7335 4.56383 19.9355 4.46499 20.1197C4.36614 20.304 4.23191 20.4669 4.07005 20.5993C3.9082 20.7316 3.72188 20.8309 3.52168 20.8912C3.36378 20.9364 3.20024 20.959 3.03599 20.9583ZM24.2911 22.2344C25.2628 21.2642 26.018 20.0992 26.5072 18.8162C26.9964 17.5331 27.2084 16.1611 27.1294 14.7902C27.0503 13.4194 26.6819 12.0808 26.0485 10.8625C25.4151 9.64416 24.5309 8.57373 23.4541 7.72161C21.742 6.37046 19.6267 5.63177 17.4457 5.62334C15.2647 5.61491 13.1437 6.33725 11.4213 7.67513C9.57378 9.11938 8.3095 11.1818 7.86056 13.4834C7.41163 15.785 7.8082 18.1713 8.9775 20.204L7.22093 25.3344C7.21081 25.3634 7.20896 25.3947 7.21563 25.4247C7.2223 25.4547 7.23724 25.4822 7.2587 25.5042C7.28017 25.5262 7.30733 25.5418 7.33716 25.5492C7.36699 25.5567 7.39827 25.5555 7.42754 25.5461L12.5631 23.7844C14.4161 24.8526 16.5697 25.2798 18.6901 24.9995C20.8105 24.7193 22.7793 23.7474 24.2911 22.2344ZM23.6349 29.6846C23.6349 30.5377 22.9433 31.2294 22.0902 31.2294C21.237 31.2294 20.5454 30.5377 20.5454 29.6846C20.5454 28.8314 21.237 28.1398 22.0902 28.1398C22.9433 28.1398 23.6349 28.8314 23.6349 29.6846Z" stroke="#F4B5A4" stroke-width="1.91" stroke-miterlimit="10"/>
<circle cx="17.1256" cy="20.026" r="1.03378" fill="#F4B5A4"/>
</svg>
