<svg width="16" height="14" viewBox="0 0 16 14" fill="none" xmlns="http://www.w3.org/2000/svg">
<path d="M10.9883 2.85599H13.9232C14.0646 2.85599 14.2047 2.8841 14.3353 2.93873C14.4659 2.99336 14.5846 3.07343 14.6846 3.17437C14.7846 3.27531 14.8639 3.39513 14.918 3.52702C14.9722 3.6589 15 3.80027 15 3.94302V11.9129C15 12.0557 14.9722 12.1971 14.918 12.3289C14.8639 12.4608 14.7846 12.5807 14.6846 12.6816C14.5846 12.7825 14.4659 12.8626 14.3353 12.9172C14.2047 12.9719 14.0646 13 13.9232 13H2.07669C1.79113 13 1.51725 12.8855 1.31533 12.6816C1.1134 12.4777 1 12.2012 1 11.9129V3.94302C1 3.65472 1.1134 3.37823 1.31533 3.17437C1.51725 2.97051 1.79113 2.85599 2.07669 2.85599H5.16553C5.13824 2.79087 5.13821 1.68629 5.13821 1.68629C5.13788 1.59607 5.15523 1.50667 5.18927 1.42325C5.22332 1.33984 5.27339 1.26406 5.33658 1.20027C5.39977 1.13648 5.47486 1.08593 5.55748 1.05155C5.6401 1.01718 5.72863 0.999674 5.81799 1H10.3383C10.5186 1 10.6915 1.0723 10.819 1.201C10.9464 1.32971 11.0181 1.50427 11.0181 1.68629C11.0181 1.68629 11.0057 2.79087 10.9883 2.85599Z" stroke="#F4B5A4" stroke-linecap="round" stroke-linejoin="round"/>
</svg>
