<svg width="25" height="24" viewBox="0 0 25 24" fill="none" xmlns="http://www.w3.org/2000/svg">
<path d="M4.32951 5.59837H4.3307M4.3307 5.59837H23.0381C23.1143 5.59816 23.1896 5.61498 23.2584 5.64759C23.3272 5.6802 23.3879 5.72778 23.436 5.78685C23.484 5.84592 23.5183 5.91497 23.5363 5.98899C23.5543 6.063 23.5554 6.14009 23.5398 6.21462L21.71 14.9527C21.6868 15.0638 21.6272 15.164 21.5407 15.2376C21.4542 15.3111 21.3457 15.3537 21.2323 15.3587H6.80903M4.3307 5.59837L6.7708 15.3587H6.80903M4.3307 5.59837L3.42655 1.98178C3.3766 1.78391 3.26208 1.60838 3.10114 1.48291C2.94019 1.35745 2.74202 1.28923 2.53795 1.28906H0.626953M6.80903 15.3587V17.6233C6.8084 17.8035 6.84343 17.9821 6.91211 18.1488C6.98079 18.3154 7.08177 18.4668 7.20922 18.5942C7.33667 18.7217 7.48808 18.8227 7.65472 18.8914C7.82136 18.96 7.99993 18.995 8.18017 18.9944H21.9059" stroke="#F4B5A4" stroke-width="1.911" stroke-miterlimit="10"/>
<path d="M7.61038 23.5411C8.44152 23.5411 9.11529 22.8673 9.11529 22.0362C9.11529 21.205 8.44152 20.5312 7.61038 20.5312C6.77924 20.5312 6.10547 21.205 6.10547 22.0362C6.10547 22.8673 6.77924 23.5411 7.61038 23.5411Z" fill="#F4B5A4"/>
<path d="M18.3932 23.5411C19.2243 23.5411 19.8981 22.8673 19.8981 22.0362C19.8981 21.205 19.2243 20.5312 18.3932 20.5312C17.562 20.5312 16.8883 21.205 16.8883 22.0362C16.8883 22.8673 17.562 23.5411 18.3932 23.5411Z" fill="#F4B5A4"/>
</svg>
