<svg width="20" height="19" viewBox="0 0 20 19" fill="none" xmlns="http://www.w3.org/2000/svg">
<path d="M17.4749 5.81741C18.1078 7.02894 18.4383 8.36886 18.4395 9.72823C18.4395 12.0331 17.4995 14.2437 15.8263 15.8735C14.1531 17.5033 11.8838 18.4189 9.51758 18.4189C7.15135 18.4189 4.88203 17.5033 3.20886 15.8735C1.53568 14.2437 0.595703 12.0331 0.595703 9.72823C0.595703 7.42331 1.53568 5.2128 3.20886 3.58297C4.88203 1.95315 7.15135 1.03753 9.51758 1.03753C10.904 1.03577 12.2716 1.3503 13.5107 1.95592M16.8577 0.955319C16.5151 0.68522 16.0767 0.558291 15.6384 0.602312C15.2 0.646333 14.7974 0.857717 14.5187 1.1902L7.38358 9.79869L6.27438 13.322C6.25824 13.3735 6.25827 13.4285 6.27449 13.48C6.29072 13.5315 6.32239 13.5771 6.36542 13.611C6.40845 13.6448 6.46091 13.6653 6.51601 13.6699C6.57111 13.6745 6.62636 13.6629 6.67466 13.6367L9.97333 11.8445L17.1084 3.23839C17.3849 2.90282 17.5137 2.47427 17.4667 2.04644C17.4197 1.61862 17.2007 1.22632 16.8577 0.955319Z" stroke="#F4B5A4" stroke-width="1.1727" stroke-linecap="round" stroke-linejoin="round"/>
</svg>
