<svg width="12" height="12" viewBox="0 0 12 12" fill="none" xmlns="http://www.w3.org/2000/svg">
<path d="M10.7683 4.11201L10.7682 4.11196L8.56286 3.55661L8.56212 3.55642C8.23208 3.47217 7.94638 3.2655 7.76313 2.97833L7.76223 2.97692L7.76224 2.97692L6.55226 1.05063L6.55088 1.04843L6.55089 1.04842C6.47507 0.924679 6.36853 0.822711 6.2416 0.75244C6.11465 0.682161 5.97164 0.645969 5.82654 0.647395L5.82253 0.647435L5.82253 0.6474C5.67779 0.646337 5.53527 0.682697 5.40871 0.752964C5.28215 0.823234 5.17589 0.92502 5.10027 1.04843L5.0988 1.05084L5.09878 1.05083L3.88613 2.97712L3.88607 2.9772C3.70444 3.26545 3.41898 3.47286 3.0887 3.55653L3.08838 3.55661L0.88308 4.11196L0.882907 4.11201C0.741831 4.14742 0.612051 4.21808 0.50578 4.31736C0.39952 4.41663 0.320225 4.54128 0.275301 4.67964C0.23037 4.81802 0.221297 4.96549 0.24897 5.10822C0.27665 5.251 0.340154 5.38441 0.433516 5.49594L0.433777 5.49625L1.89052 7.24268C1.89055 7.24271 1.89058 7.24275 1.89062 7.24279C2.10906 7.50439 2.21854 7.83995 2.19644 8.18002L2.1964 8.18058L2.04348 10.45C2.04348 10.4501 2.04348 10.4501 2.04347 10.4501C2.03569 10.5675 2.05206 10.6853 2.09156 10.7962C2.13107 10.907 2.19291 11.0087 2.27324 11.0947C2.35356 11.1808 2.45067 11.2495 2.55857 11.2965C2.66641 11.3436 2.78275 11.368 2.90041 11.3683C3.01032 11.3682 3.11923 11.3474 3.22146 11.3071C3.22163 11.307 3.2218 11.3069 3.22198 11.3069L5.3322 10.4596L5.33374 10.4589C5.48966 10.3976 5.6556 10.3658 5.82313 10.365L5.8249 10.3649C5.99344 10.3654 6.16044 10.3973 6.31733 10.4589L6.31897 10.4595L8.42926 11.3069C8.42943 11.3069 8.4296 11.307 8.42976 11.3071C8.532 11.3474 8.64091 11.3682 8.75083 11.3683C8.86847 11.368 8.98475 11.3436 9.0926 11.2965C9.2005 11.2495 9.29761 11.1808 9.37793 11.0947C9.45826 11.0087 9.5201 10.907 9.55961 10.7962C9.59912 10.6853 9.61548 10.5675 9.60769 10.45L9.45483 8.18057L9.4548 8.18002C9.4327 7.83995 9.54218 7.50439 9.76062 7.2428L10.7683 4.11201ZM10.7683 4.11201C10.9094 4.14741 11.0391 4.21806 11.1454 4.31736C11.2517 4.41666 11.331 4.54133 11.3759 4.67964C11.4208 4.81796 11.4299 4.96543 11.4022 5.10822C11.3745 5.251 11.311 5.38441 11.2177 5.49594L11.2174 5.49626L9.76072 7.24268L10.7683 4.11201ZM3.03141 3.33038L0.82611 3.88573L3.03141 3.33038ZM3.03141 3.33038C3.30366 3.26142 3.53898 3.09044 3.6887 2.85283L4.90136 0.926541C4.99799 0.768838 5.13376 0.638785 5.29547 0.549002C5.45717 0.45922 5.63929 0.412756 5.82424 0.414114C6.00965 0.412292 6.19238 0.458535 6.35459 0.548339C6.5168 0.638144 6.65295 0.768446 6.74982 0.926541M3.03141 3.33038L6.74982 0.926541M6.74982 0.926541L7.95979 2.85283M6.74982 0.926541L7.95979 2.85283M7.95979 2.85283C8.11116 3.09004 8.34717 3.26078 8.61983 3.33038L7.95979 2.85283Z" stroke="#CC7861" stroke-width="0.466584"/>
</svg>
