<svg width="10" height="7" viewBox="0 0 10 7" fill="none" xmlns="http://www.w3.org/2000/svg">
<path d="M9.88457 3.06162C9.19584 2.18923 7.27887 -0.0078125 5.00607 -0.0078125C2.73326 -0.0078125 0.809403 2.18923 0.120673 3.06162C0.0424845 3.16202 0 3.28563 0 3.41288C0 3.54012 0.0424845 3.66373 0.120673 3.76413C0.795628 4.63652 2.72407 6.83585 4.99917 6.83585C7.27428 6.83585 9.20042 4.63652 9.87767 3.76413C9.95574 3.66401 9.99873 3.54099 9.99997 3.41404C10.0012 3.28709 9.96066 3.16325 9.88457 3.06162ZM5.06346 5.18521C4.55706 5.1846 4.0716 4.98316 3.71352 4.62508C3.35545 4.267 3.15398 3.78153 3.15337 3.27513C3.15337 2.76833 3.35454 2.28226 3.71268 1.92369C4.07083 1.56512 4.55667 1.36336 5.06346 1.36275C5.57065 1.36275 6.05706 1.56424 6.4157 1.92288C6.77434 2.28152 6.97585 2.76794 6.97585 3.27513C6.97555 3.52665 6.92562 3.77564 6.82895 4.00785C6.73228 4.24005 6.59073 4.4509 6.41245 4.62833C6.23417 4.80576 6.02263 4.94628 5.78997 5.04183C5.5573 5.13739 5.30809 5.18611 5.05657 5.18521H5.06346Z" fill="#CC7861"/>
<path d="M5.54784 2.41651C5.43941 2.41651 5.33209 2.4379 5.23195 2.47946C5.1318 2.52103 5.04082 2.58194 4.96426 2.65872C4.8877 2.73549 4.82703 2.82662 4.78574 2.92688C4.74446 3.02714 4.72339 3.13456 4.7237 3.24298C4.7237 3.46157 4.81053 3.6712 4.9651 3.82577C5.11966 3.98033 5.32925 4.06716 5.54784 4.06716C5.65607 4.06716 5.76329 4.04585 5.86328 4.00443C5.96328 3.96301 6.0541 3.9023 6.13064 3.82577C6.20717 3.74923 6.2679 3.65838 6.30932 3.55839C6.35074 3.45839 6.37204 3.35122 6.37204 3.24298C6.37234 3.13456 6.35128 3.02714 6.30999 2.92688C6.26871 2.82662 6.20804 2.73549 6.13148 2.65872C6.05491 2.58194 5.96393 2.52103 5.86379 2.47946C5.76364 2.4379 5.65627 2.41651 5.54784 2.41651Z" fill="#CC7861"/>
</svg>
