<svg width="40" height="32" viewBox="0 0 40 32" fill="none" xmlns="http://www.w3.org/2000/svg">
<path d="M10.2009 24.1469V29.8277H29.897V23.7607M29.897 11.2275V6.99301C29.897 5.69985 29.4026 4.45966 28.5226 3.54526C27.6425 2.63086 26.449 2.11719 25.2044 2.11719H6.03112C4.96243 2.12236 3.93903 2.56618 3.18393 3.352C2.42883 4.13782 2.00331 5.20188 2 6.31233V10.3177H7.3476M10.2009 24.6966V6.31233C10.1976 5.20075 9.77115 4.13569 9.0147 3.34968C8.25825 2.56368 7.23322 2.12064 6.16344 2.11719M14.0935 8.64229H19.6553M14.0935 14.4737H21.8598M14.0935 21.3261H25.5068M34.8856 10.6646C34.0596 10.3327 33.1624 10.2396 32.2896 10.3952C31.4167 10.5508 30.6008 10.9492 29.9285 11.5481C29.2562 10.9492 28.4402 10.5508 27.5673 10.3952C26.6945 10.2396 25.7974 10.3327 24.9714 10.6646C24.372 10.9063 23.8243 11.2685 23.3596 11.7303C22.8949 12.192 22.5224 12.7444 22.2632 13.3558C22.0041 13.9673 21.8635 14.6258 21.8494 15.2938C21.8353 15.9617 21.948 16.626 22.1811 17.2487C23.1385 19.8142 29.9222 23.9505 29.9222 23.9505C30.1993 23.7869 36.7059 19.8208 37.6633 17.2552C37.8977 16.633 38.0118 15.9689 37.999 15.3008C37.9863 14.6328 37.8469 13.9738 37.5889 13.3617C37.3309 12.7497 36.9594 12.1964 36.4956 11.7336C36.0317 11.2708 35.4846 10.9076 34.8856 10.6646Z" stroke="#4B4544" stroke-width="2.5" stroke-miterlimit="10"/>
</svg>
