<svg width="20" height="13" viewBox="0 0 20 13" fill="none" xmlns="http://www.w3.org/2000/svg">
<path d="M7.1768 3.17465H19M7.1768 3.17465C7.1768 4.37567 6.21397 5.34929 5.02625 5.34929C3.83854 5.34929 2.8757 4.37567 2.8757 3.17465C2.8757 1.97362 3.83854 1 5.02625 1C6.21397 1 7.1768 1.97362 7.1768 3.17465ZM1 3.17465H2.88053M12.8232 9.82536H1M12.8232 9.82536C12.8232 11.0264 13.786 12 14.9737 12C16.1615 12 17.1243 11.0264 17.1243 9.82536C17.1243 8.62433 16.1615 7.65071 14.9737 7.65071C13.786 7.65071 12.8232 8.62433 12.8232 9.82536ZM19 9.82536H17.1195" stroke="#CC7861" stroke-width="1.7" stroke-linecap="round" stroke-linejoin="round"/>
</svg>
