<svg width="13" height="17" viewBox="0 0 13 17" fill="none" xmlns="http://www.w3.org/2000/svg">
<path d="M9.61073 8.45908L10.1107 8.46017V8.45908H9.61073ZM6.50118 11.6723L6.49964 12.1723L6.50272 12.1723L6.50118 11.6723ZM3.38927 8.45908H2.88927L2.88928 8.46053L3.38927 8.45908ZM3.38927 4.21084L2.88927 4.20939V4.21084H3.38927ZM6.50118 1L6.50272 0.499995L6.50003 0.500001L6.50118 1ZM9.61073 4.21084H10.1107L10.1107 4.2094L9.61073 4.21084ZM6.50118 14.137L6.49987 14.637L6.50271 14.637L6.50118 14.137ZM3.38929 7.24903C3.11315 7.24903 2.88929 7.47289 2.88929 7.74903C2.88929 8.02518 3.11315 8.24903 3.38929 8.24903V7.24903ZM9.61072 8.24903C9.88687 8.24903 10.1107 8.02518 10.1107 7.74903C10.1107 7.47289 9.88687 7.24903 9.61072 7.24903V8.24903ZM6.99884 11.6723C6.99884 11.3962 6.77498 11.1723 6.49884 11.1723C6.2227 11.1723 5.99884 11.3962 5.99884 11.6723H6.99884ZM5.99884 16C5.99884 16.2761 6.2227 16.5 6.49884 16.5C6.77498 16.5 6.99884 16.2761 6.99884 16H5.99884ZM9.11073 8.458C9.10916 9.18211 8.82989 9.87304 8.33877 10.3805L9.05738 11.076C9.73164 10.3792 10.1086 9.43847 10.1107 8.46017L9.11073 8.458ZM8.33877 10.3805C7.84817 10.8875 7.1866 11.1702 6.49964 11.1723L6.50272 12.1723C7.46446 12.1694 8.3826 11.7732 9.05738 11.076L8.33877 10.3805ZM6.50272 11.1723C5.81548 11.1702 5.15361 10.8875 4.66264 10.3806L3.94429 11.0762C4.61943 11.7734 5.53775 12.1694 6.49964 12.1723L6.50272 11.1723ZM4.66264 10.3806C4.17113 9.87303 3.89136 9.18202 3.88927 8.45764L2.88928 8.46053C2.8921 9.439 3.26968 10.3796 3.94429 11.0762L4.66264 10.3806ZM3.88927 8.45908V4.21084H2.88927V8.45908H3.88927ZM3.88927 4.21229C3.89137 3.48819 4.17116 2.79748 4.66265 2.29036L3.94456 1.59441C3.2698 2.29063 2.89211 3.23108 2.88928 4.20939L3.88927 4.21229ZM4.66265 2.29036C5.15361 1.78379 5.81537 1.50159 6.50234 1.5L6.50003 0.500001C5.53828 0.502224 4.61985 0.897638 3.94456 1.59441L4.66265 2.29036ZM6.49964 1.5C7.18626 1.50211 7.84753 1.78456 8.33808 2.29108L9.05642 1.59539C8.38172 0.898711 7.46399 0.502965 6.50272 0.500002L6.49964 1.5ZM8.33808 2.29108C8.82914 2.79813 9.10864 3.48853 9.11073 4.21229L10.1107 4.2094C10.1079 3.23157 9.73061 2.29154 9.05642 1.59539L8.33808 2.29108ZM9.11073 4.21084V8.45908H10.1107V4.21084H9.11073ZM11.5 8.45765C11.4961 9.83513 10.9642 11.1519 10.0255 12.1213L10.7438 12.8169C11.8657 11.6585 12.4953 10.0921 12.5 8.46051L11.5 8.45765ZM10.0255 12.1213C9.08727 13.09 7.81938 13.633 6.49966 13.637L6.50271 14.637C8.09709 14.6322 9.62145 13.9759 10.7438 12.8169L10.0255 12.1213ZM6.50249 13.637C5.1824 13.6336 3.91394 13.0908 2.97526 12.122L2.25706 12.8178C3.37999 13.9769 4.90504 14.6329 6.49987 14.637L6.50249 13.637ZM2.97526 12.122C2.03607 11.1526 1.50394 9.83551 1.5 8.45765L0.500002 8.46052C0.504673 10.0925 1.13466 11.6594 2.25706 12.8178L2.97526 12.122ZM3.38929 8.24903H9.61072V7.24903H3.38929V8.24903ZM4.338 16.5H8.66201V15.5H4.338V16.5ZM5.99884 11.6723V16H6.99884V11.6723H5.99884Z" fill="#F4B5A4"/>
</svg>
