<svg width="35" height="37" viewBox="0 0 35 37" fill="none" xmlns="http://www.w3.org/2000/svg">
<path d="M22.1572 7.7956C22.1462 7.57651 22.1462 7.35697 22.1572 7.13788C22.3088 5.70328 22.9509 4.37839 23.9609 3.41629C24.9708 2.45418 26.2778 1.9222 27.6324 1.92188C28.3567 1.92087 29.0741 2.0721 29.7436 2.36683C30.4131 2.66156 31.0214 3.09408 31.5339 3.6396C32.0465 4.18512 32.4531 4.83297 32.7305 5.5461C33.0079 6.25922 33.1507 7.02361 33.1507 7.7956C33.1507 8.56758 33.0079 9.33197 32.7305 10.0451C32.4531 10.7582 32.0465 11.4061 31.5339 11.9516C31.0214 12.4971 30.4131 12.9296 29.7436 13.2244C29.0741 13.5191 28.3567 13.6703 27.6324 13.6693C26.8649 13.6703 26.1057 13.5 25.4037 13.1694C24.7017 12.8388 24.0725 12.3551 23.5565 11.7496M13.9982 34.9613L2 22.1739L15.3185 7.97152L27.3813 6.67905C27.5362 6.66086 27.693 6.68 27.84 6.73506C27.9871 6.79013 28.1206 6.87965 28.2309 6.99712C28.3411 7.11459 28.4252 7.25696 28.4768 7.41369C28.5285 7.57043 28.5464 7.73758 28.5294 7.90271L27.3167 20.759L13.9982 34.9613Z" stroke="#4B4544" stroke-width="2.5" stroke-miterlimit="10"/>
<path d="M24.0732 15.253C25.5633 15.253 26.7713 13.9826 26.7713 12.4155C26.7713 10.8485 25.5633 9.57812 24.0732 9.57812C22.583 9.57812 21.375 10.8485 21.375 12.4155C21.375 13.9826 22.583 15.253 24.0732 15.253Z" fill="#4B4544"/>
</svg>
