<svg width="10" height="11" viewBox="0 0 10 11" fill="none" xmlns="http://www.w3.org/2000/svg">
<path d="M9.291 3.58905L7.39823 3.1124C7.16422 3.05266 6.96166 2.90612 6.83174 2.70252L5.79324 1.04923C5.7101 0.913536 5.59325 0.8017 5.45403 0.724622C5.3148 0.647545 5.15797 0.607855 4.99884 0.60942C4.8401 0.608254 4.68378 0.648133 4.545 0.725191C4.40621 0.80225 4.28968 0.913872 4.20674 1.04923L3.16594 2.70252C3.03744 2.90646 2.83547 3.0532 2.6018 3.1124L0.709034 3.58905C0.555065 3.62769 0.413416 3.70482 0.297414 3.81319C0.181411 3.92155 0.0948672 4.05762 0.0458428 4.2086C-0.00318169 4.35959 -0.0130981 4.52055 0.0171159 4.67639C0.0473299 4.83224 0.116645 4.97785 0.218541 5.09958L1.46892 6.5986C1.62351 6.78368 1.70099 7.02112 1.68535 7.26177L1.55409 9.20981C1.54559 9.33792 1.56343 9.46642 1.60654 9.58737C1.64964 9.70831 1.7171 9.81914 1.8047 9.913C1.89231 10.0069 1.99823 10.0818 2.11592 10.1331C2.23361 10.1844 2.36058 10.2111 2.48898 10.2115C2.6088 10.2114 2.72755 10.1887 2.83898 10.1447L4.65114 9.41704C4.76191 9.37348 4.87981 9.35084 4.99884 9.35027C5.11864 9.3506 5.23734 9.37325 5.34885 9.41704L7.16106 10.1447C7.27249 10.1887 7.39123 10.2114 7.51106 10.2115C7.63946 10.2111 7.76637 10.1844 7.88406 10.1331C8.00175 10.0818 8.10767 10.0069 8.19528 9.913C8.28289 9.81914 8.35034 9.70831 8.39344 9.58737C8.43655 9.46642 8.45439 9.33792 8.44589 9.20981L8.31468 7.26177C8.29905 7.02112 8.37653 6.78368 8.53112 6.5986L9.78144 5.09958C9.88334 4.97785 9.95265 4.83224 9.98287 4.67639C10.0131 4.52055 10.0032 4.35959 9.9542 4.2086C9.90517 4.05762 9.81857 3.92155 9.70257 3.81319C9.58657 3.70482 9.44497 3.62769 9.291 3.58905Z" fill="#CC7861"/>
</svg>
