<svg width="16" height="16" viewBox="0 0 16 16" fill="none" xmlns="http://www.w3.org/2000/svg">
<path d="M14.8896 1.13079L6.79289 9.2092M6.79289 9.2063L8.56439 14.496C8.60274 14.6474 8.69288 14.7805 8.81914 14.8723C8.9454 14.9641 9.09981 15.0088 9.25557 14.9986C9.35882 14.9892 9.45747 14.9514 9.54052 14.8894C9.62358 14.8273 9.68779 14.7435 9.72604 14.6471L14.9709 1.55782C15.0005 1.48391 15.0077 1.40294 14.9917 1.32495C14.9757 1.24697 14.9372 1.1754 14.8809 1.11911C14.8246 1.06282 14.7531 1.0243 14.6751 1.0083C14.5972 0.992303 14.5162 0.999532 14.4423 1.02911L1.35638 6.2753C0.941095 6.44088 0.877219 6.98989 1.22571 7.35009C1.24604 7.3559 6.79289 9.2063 6.79289 9.2063Z" stroke="#F4B5A4" stroke-linecap="round" stroke-linejoin="round"/>
</svg>
