<svg width="23" height="24" viewBox="0 0 23 24" fill="none" xmlns="http://www.w3.org/2000/svg">
<path d="M18.8916 13.1745L21.7121 14.8323C21.776 14.868 21.8324 14.916 21.8781 14.9739C21.9237 15.0317 21.9577 15.0982 21.978 15.1694C21.9983 15.2406 22.0047 15.3152 21.9966 15.3889C21.9885 15.4626 21.9663 15.534 21.931 15.599L19.7835 19.3831C19.7101 19.5117 19.5897 19.6055 19.4486 19.6442C19.3075 19.6828 19.157 19.6632 19.0301 19.5895L16.2129 17.9513C15.6086 18.4465 14.9317 18.8423 14.207 19.1242V22.4365C14.2074 22.5103 14.1935 22.5835 14.166 22.6519C14.1386 22.7202 14.0981 22.7824 14.0469 22.8347C13.9957 22.8871 13.9349 22.9287 13.8679 22.957C13.8009 22.9854 13.729 23 13.6565 23H9.36462C9.29189 23 9.21989 22.9854 9.1527 22.9571C9.08551 22.9288 9.02445 22.8873 8.97303 22.8349C8.9216 22.7826 8.88083 22.7205 8.85299 22.6521C8.82516 22.5838 8.81082 22.5105 8.81082 22.4365V19.1242C8.08645 18.8415 7.40973 18.4458 6.80497 17.9513L3.99097 19.5895C3.86404 19.6632 3.7136 19.6828 3.57247 19.6442C3.43134 19.6055 3.31095 19.5117 3.23755 19.3831L1.09003 15.599C1.01758 15.4698 0.99825 15.3167 1.03625 15.1731C1.07424 15.0295 1.16649 14.907 1.29287 14.8323L4.11332 13.1745C4.0505 12.7857 4.01713 12.3925 4.01351 11.9984C4.01727 11.6054 4.05064 11.2133 4.11332 10.8255L1.29287 9.1677C1.22839 9.13265 1.17137 9.08495 1.12509 9.02736C1.07881 8.96977 1.04419 8.90343 1.02324 8.83216C1.00228 8.76088 0.9954 8.6861 1.003 8.61211C1.01059 8.53812 1.03252 8.46639 1.06749 8.40107L3.21501 4.61699C3.28841 4.48838 3.4088 4.39454 3.54993 4.35587C3.69106 4.31721 3.8415 4.33686 3.96843 4.41058L6.78243 6.04871C7.38785 5.55435 8.06439 5.15767 8.7883 4.87255V1.56027C8.78915 1.41138 8.84786 1.26886 8.95163 1.16389C9.05539 1.05892 9.19576 0.999997 9.34208 1H13.6403C13.7864 1 13.9264 1.05903 14.0297 1.16409C14.1329 1.26916 14.1909 1.41168 14.1909 1.56027V4.87255C14.9152 5.15696 15.5918 5.5537 16.1968 6.04871L19.014 4.41058C19.1409 4.33686 19.2914 4.31721 19.4325 4.35587C19.5736 4.39454 19.694 4.48838 19.7674 4.61699L21.9149 8.40107C21.9874 8.53023 22.0067 8.68331 21.9687 8.82692C21.9307 8.97052 21.8385 9.09301 21.7121 9.1677L18.8916 10.8255C18.9532 11.2134 18.9856 11.6055 18.9883 11.9984C18.9857 12.3924 18.9534 12.7856 18.8916 13.1745Z" stroke="#4B4544" stroke-width="1.5" stroke-linecap="round" stroke-linejoin="round"/>
</svg>
