<svg width="13" height="12" viewBox="0 0 13 12" fill="none" xmlns="http://www.w3.org/2000/svg">
<path d="M11.4755 3.88573L9.27022 3.33038C8.99756 3.26078 8.76155 3.09005 8.61018 2.85283L7.40021 0.926541C7.30334 0.768446 7.16719 0.638144 7.00498 0.548339C6.84277 0.458535 6.66004 0.412292 6.47463 0.414114C6.28968 0.412756 6.10756 0.45922 5.94586 0.549002C5.78415 0.638785 5.64838 0.768838 5.55175 0.926541L4.33909 2.85283C4.18937 3.09044 3.95405 3.26142 3.6818 3.33038L1.4765 3.88573C1.29711 3.93076 1.13207 4.02062 0.996913 4.14688C0.861756 4.27315 0.760922 4.43167 0.703803 4.60759C0.646684 4.78351 0.63513 4.97105 0.670333 5.15262C0.705536 5.3342 0.786296 5.50386 0.905017 5.64569L2.36186 7.39223C2.54197 7.60787 2.63225 7.88452 2.61403 8.16489L2.46109 10.4346C2.45119 10.5839 2.47198 10.7336 2.5222 10.8745C2.57242 11.0154 2.65101 11.1445 2.75308 11.2539C2.85516 11.3633 2.97857 11.4505 3.11569 11.5104C3.25281 11.5702 3.40075 11.6012 3.55034 11.6016C3.68996 11.6016 3.82831 11.5752 3.95814 11.5238L6.06952 10.676C6.19858 10.6253 6.33595 10.5989 6.47463 10.5982C6.61422 10.5986 6.75251 10.625 6.88243 10.676L8.99387 11.5238C9.12371 11.5752 9.26206 11.6016 9.40167 11.6016C9.55127 11.6012 9.69914 11.5702 9.83626 11.5104C9.97339 11.4505 10.0968 11.3633 10.1989 11.2539C10.3009 11.1445 10.3795 11.0154 10.4298 10.8745C10.48 10.7336 10.5008 10.5839 10.4909 10.4346L10.338 8.16489C10.3198 7.88452 10.41 7.60787 10.5902 7.39223L12.0469 5.64569C12.1657 5.50386 12.2464 5.3342 12.2816 5.15262C12.3168 4.97105 12.3053 4.78351 12.2482 4.60759C12.1911 4.43167 12.0902 4.27315 11.955 4.14688C11.8199 4.02062 11.6549 3.93076 11.4755 3.88573Z" fill="#F4B5A4"/>
</svg>
