<svg width="20" height="20" viewBox="0 0 20 20" fill="none" xmlns="http://www.w3.org/2000/svg">
<path d="M18.3779 13.1353C17.9304 14.2669 17.2551 15.2948 16.3936 16.1553C14.9744 17.5748 13.1159 18.4734 11.1202 18.705C9.12461 18.9366 7.10916 18.4876 5.40151 17.4311C5.29104 17.3784 5.16922 17.3539 5.04693 17.3597C4.92464 17.3655 4.8057 17.4015 4.70075 17.4644C3.15238 18.1239 1 19 1 19C1 19 2.06117 16.3618 2.50833 15.2659C2.56973 15.1616 2.60431 15.0437 2.60897 14.9228C2.61363 14.802 2.58823 14.6818 2.53503 14.5731C1.41988 12.7811 0.979442 10.6516 1.29244 8.56526C1.60543 6.47892 2.65146 4.57166 4.24358 3.18433C5.8696 1.77562 7.95032 1 10.1034 1C12.2564 1 14.3371 1.77562 15.9631 3.18433C16.8798 3.98607 17.6218 4.96706 18.1433 6.06659C18.6649 7.16613 18.9548 8.3608 18.9951 9.57668C19.0355 10.7926 18.8254 12.0038 18.3779 13.1353Z" stroke="#4B4544" stroke-width="1.3" stroke-linecap="round" stroke-linejoin="round"/>
</svg>
