<svg width="29" height="22" viewBox="0 0 29 22" fill="none" xmlns="http://www.w3.org/2000/svg">
<path d="M7.53657 17.0517V20.9693H21.9126V16.7854M21.9126 8.14207V5.22188C21.9126 4.33008 21.5518 3.47481 20.9094 2.84421C20.2671 2.21362 19.3959 1.85938 18.4876 1.85938H4.49307C3.71304 1.86294 2.96607 2.16901 2.41493 2.71094C1.86379 3.25286 1.5532 3.98667 1.55078 4.75246V7.5147H5.45396M7.5366 17.4308V4.75246C7.53417 3.98589 7.2229 3.25139 6.67077 2.70934C6.11864 2.16729 5.37048 1.86176 4.58965 1.85938M10.3778 6.35927H14.4373M10.3778 10.3808H16.0463M10.3778 15.1064H18.7082M25.5538 7.7539C24.9509 7.52502 24.2961 7.46083 23.659 7.56812C23.0219 7.6754 22.4264 7.95015 21.9356 8.3632C21.4449 7.95015 20.8493 7.6754 20.2122 7.56812C19.5751 7.46083 18.9204 7.52502 18.3175 7.7539C17.88 7.92062 17.4802 8.17037 17.141 8.48882C16.8019 8.80728 16.5299 9.18819 16.3408 9.60986C16.1517 10.0315 16.0491 10.4857 16.0388 10.9463C16.0285 11.407 16.1107 11.8651 16.2808 12.2945C16.9796 14.0637 21.931 16.9162 21.931 16.9162C22.1333 16.8034 26.8824 14.0683 27.5812 12.299C27.7523 11.8699 27.8356 11.4119 27.8263 10.9512C27.8169 10.4905 27.7152 10.036 27.5269 9.61394C27.3386 9.19184 27.0674 8.81029 26.7289 8.49114C26.3903 8.17198 25.991 7.92147 25.5538 7.7539Z" stroke="#F4B5A4" stroke-width="1.911" stroke-miterlimit="10"/>
</svg>
